<svg version="1.0" xmlns="http://www.w3.org/2000/svg"
 width="752.000000pt" height="752.000000pt" viewBox="0 0 752.000000 752.000000"
 preserveAspectRatio="xMidYMid meet">
<g transform="translate(0.000000,752.000000) scale(0.100000,-0.100000)"
fill="#000000" stroke="none">
<path d="M3043 5533 c-12 -2 -34 -18 -48 -34 -21 -26 -25 -41 -25 -94 l0 -63
-243 -4 -243 -3 -76 -37 c-91 -45 -147 -103 -191 -196 l-32 -67 0 -1276 0
-1275 37 -76 c45 -91 103 -147 196 -191 l67 -32 1275 0 1275 0 67 32 c93 44
151 100 196 191 l37 76 0 1276 0 1276 -37 76 c-45 91 -103 147 -196 191 l-67
32 -242 3 -243 4 0 64 c0 56 -4 68 -28 95 -33 37 -84 43 -126 15 -34 -22 -46
-53 -46 -122 l0 -54 -590 0 -590 0 0 54 c0 30 -4 66 -10 80 -15 40 -70 68
-117 59z m-73 -458 c0 -57 3 -69 28 -96 33 -37 84 -43 126 -15 34 22 46 53 46
122 l0 54 590 0 590 0 0 -54 c0 -69 12 -100 46 -122 42 -28 93 -22 126 15 25
27 28 39 28 96 l0 65 215 0 c230 0 262 -5 314 -53 47 -44 61 -92 61 -219 l0
-118 -1380 0 -1380 0 0 115 c0 158 25 215 115 256 35 16 67 19 258 19 l217 0
0 -65z m2170 -1532 c0 -959 -1 -1010 -19 -1048 -22 -48 -54 -79 -103 -100 -33
-13 -179 -15 -1258 -15 -1079 0 -1225 2 -1258 15 -49 21 -81 52 -103 100 -18
38 -19 89 -19 1048 l0 1007 1380 0 1380 0 0 -1007z"/>
</g>
</svg>
